<svg version="1.1" id="Layer_1" xmlns="http://www.w3.org/2000/svg" xmlns:xlink="http://www.w3.org/1999/xlink" x="0px" y="0px"
	 width="100%" viewBox="0 0 512 512" enable-background="new 0 0 512 512" xml:space="preserve">
<path fill="#4285F4" opacity="1.000000" stroke="none" 
	d="
M513.000000,38.000000 
	C513.000000,108.020897 513.000000,178.041794 512.537415,248.613098 
	C488.495453,249.163528 464.916046,249.163528 441.232483,249.163528 
	C438.092346,201.228531 420.451019,160.326523 386.886078,126.809578 
	C353.342102,93.313622 312.420197,75.721252 265.000000,72.749252 
	C265.000000,48.558064 265.000000,24.779032 265.000000,1.000000 
	C335.020905,1.000000 405.041779,1.000000 475.190399,1.276182 
	C475.640625,1.931117 475.894806,2.534358 476.295502,2.656349 
	C493.977692,8.039959 505.651276,19.449184 511.145782,37.155926 
	C511.279694,37.587517 512.360718,37.725220 513.000000,38.000000 
z"/>
<path fill="#34A853" opacity="1.000000" stroke="none" 
	d="
M513.000000,265.000000 
	C513.000000,335.020905 513.000000,405.041779 512.635132,475.378845 
	C511.842560,476.347229 511.248810,476.944397 511.011414,477.659851 
	C505.560089,494.088654 494.479736,504.947388 478.359863,510.911407 
	C477.441406,511.251251 476.780701,512.287781 476.000000,513.000000 
	C405.979095,513.000000 335.958221,513.000000 265.372925,512.539795 
	C264.808563,488.507355 264.808563,464.935150 264.808563,441.228088 
	C312.664001,438.205170 353.528320,420.542725 387.040771,387.052399 
	C420.664612,353.450745 438.242249,312.383240 441.241333,265.000000 
	C465.435211,265.000000 489.217621,265.000000 513.000000,265.000000 
z"/>
<path fill="#EA4335" opacity="1.000000" stroke="none" 
	d="
M1.000000,476.000000 
	C1.000000,405.979095 1.000000,335.958221 1.461017,265.377808 
	C25.488121,264.818268 49.054207,264.818268 72.742905,264.818268 
	C75.819862,312.657898 93.445145,353.522858 126.935211,387.028381 
	C160.535904,420.644562 201.590775,438.228851 249.000000,441.245239 
	C249.000000,465.450470 249.000000,489.225220 249.000000,513.000000 
	C178.979111,513.000000 108.958214,513.000000 38.790771,512.701416 
	C38.309734,512.036194 38.039726,511.457916 37.631474,511.333588 
	C19.994972,505.962708 8.337378,494.591431 2.852295,476.925781 
	C2.710617,476.469452 1.638309,476.302124 1.000000,476.000000 
z"/>
<path fill="#8A3FB2" opacity="1.000000" stroke="none" 
	d="
M1.000000,249.000000 
	C1.000000,178.979111 1.000000,108.958214 1.330640,38.730740 
	C2.024045,38.190010 2.594962,37.919601 2.719621,37.512531 
	C8.081473,20.003637 19.450394,8.465193 36.901657,2.874395 
	C37.415226,2.709864 37.640377,1.645054 38.000000,1.000000 
	C108.020897,1.000000 178.041794,1.000000 248.611023,1.462859 
	C249.159348,25.500547 249.159348,49.075375 249.159348,72.741364 
	C201.193268,75.875038 160.291870,93.532173 126.790993,127.095520 
	C93.309624,160.639328 75.748177,201.587631 72.730240,249.000000 
	C48.559765,249.000000 24.779882,249.000000 1.000000,249.000000 
z"/>
<path fill="#FDFCFC" opacity="1.000000" stroke="none" 
	d="
M1.000000,249.466858 
	C24.779882,249.000000 48.559765,249.000000 72.730240,249.000000 
	C75.748177,201.587631 93.309624,160.639328 126.790993,127.095520 
	C160.291870,93.532173 201.193268,75.875038 249.159348,72.741364 
	C249.159348,49.075375 249.159348,25.500547 249.079681,1.462859 
	C254.022095,1.000000 259.044189,1.000000 264.533142,1.000000 
	C265.000000,24.779032 265.000000,48.558064 265.000000,72.749252 
	C312.420197,75.721252 353.342102,93.313622 386.886078,126.809578 
	C420.451019,160.326523 438.092346,201.228531 441.232483,249.163528 
	C464.916046,249.163528 488.495453,249.163528 512.537415,249.081757 
	C513.000000,254.022095 513.000000,259.044189 513.000000,264.533142 
	C489.217621,265.000000 465.435211,265.000000 441.241333,265.000000 
	C438.242249,312.383240 420.664612,353.450745 387.040771,387.052399 
	C353.528320,420.542725 312.664001,438.205170 264.808563,441.228088 
	C264.808563,464.935150 264.808563,488.507355 264.904297,512.539795 
	C259.977905,513.000000 254.955811,513.000000 249.466858,513.000000 
	C249.000000,489.225220 249.000000,465.450470 249.000000,441.245239 
	C201.590775,438.228851 160.535904,420.644562 126.935211,387.028381 
	C93.445145,353.522858 75.819862,312.657898 72.742905,264.818268 
	C49.054207,264.818268 25.488121,264.818268 1.461017,264.909119 
	C1.000000,259.977905 1.000000,254.955811 1.000000,249.466858 
M252.664047,425.890656 
	C263.932556,424.981384 275.355804,424.958649 286.445251,423.023254 
	C379.003235,406.869446 440.898193,316.731598 422.805420,224.909927 
	C404.960236,134.344498 318.285370,74.941147 227.236115,90.874832 
	C138.626831,106.381523 77.471146,190.521652 89.791634,279.975739 
	C100.976936,361.187683 169.781113,423.182922 252.664047,425.890656 
z"/>
<path fill="#FBBC06" opacity="1.000000" stroke="none"
	d="
M252.187607,425.881104 
	C169.781113,423.182922 100.976936,361.187683 89.791634,279.975739 
	C77.471146,190.521652 138.626831,106.381523 227.236115,90.874832 
	C318.285370,74.941147 404.960236,134.344498 422.805420,224.909927 
	C440.898193,316.731598 379.003235,406.869446 286.445251,423.023254 
	C275.355804,424.958649 263.932556,424.981384 252.187607,425.881104 
M315.009766,259.007202 
	C315.009766,259.007202 314.970551,259.107513 314.825989,258.522797 
	C314.505737,258.021820 314.185516,257.520844 313.325592,256.618591 
	C305.290527,242.107315 293.162811,232.627609 277.463898,227.626831 
	C262.240692,222.777588 246.785568,222.625854 231.143738,224.607117 
	C231.110077,216.609497 231.059525,208.611923 231.047623,200.614273 
	C231.036301,193.009079 231.054062,193.003021 238.809906,193.001755 
	C261.638000,192.998062 284.466644,192.915482 307.293640,193.073578 
	C311.603241,193.103424 313.379486,191.777466 313.094818,187.348465 
	C312.806824,182.868057 313.042450,178.354584 313.030365,173.855652 
	C313.012207,167.094803 313.005432,167.094818 305.768677,166.168289 
	C305.768677,163.237076 305.768677,160.305862 305.768677,157.372284 
	C271.164673,157.372284 237.410187,157.372284 203.477768,157.372284 
	C203.477768,190.029877 203.477768,222.383423 203.477768,255.149948 
	C206.213104,254.198730 208.531311,253.392563 210.911072,253.556686 
	C211.049088,257.223969 211.187103,260.891235 211.353622,265.315735 
	C215.176804,263.847748 217.772461,262.798340 220.404190,261.848999 
	C239.451080,254.978333 258.586426,253.295883 277.793427,261.151489 
	C281.143311,262.521576 284.302399,264.358246 288.007782,266.436951 
	C303.626434,293.650208 290.387665,325.901459 260.637451,332.750244 
	C248.108917,335.634460 235.375259,335.210114 222.977280,332.358490 
	C212.869904,330.033752 203.091263,326.279663 193.243393,323.183411 
	C193.243393,331.179932 193.243393,339.769409 193.243393,348.271667 
	C195.977310,349.246216 198.461517,350.131744 200.954041,351.885132 
	C200.895233,355.390808 200.487411,358.696014 205.293365,360.026031 
	C228.493820,366.446686 251.916245,369.607239 275.811951,364.905640 
	C293.936768,361.339447 309.453735,353.337738 319.389374,336.904358 
	C325.013794,327.601715 327.623779,317.414917 328.433960,306.595703 
	C329.584290,291.233978 326.996490,276.788696 318.942047,263.533997 
	C318.161926,262.250122 316.564331,261.462982 315.518921,260.141937 
	C315.518921,260.141937 315.822174,260.314850 315.547150,259.846100 
	C315.334595,259.553345 315.122070,259.260559 315.009766,259.007202 
z"/>
<path fill="#FFFEFB" opacity="1.000000" stroke="none" 
	d="
M210.849518,252.586395 
	C208.531311,253.392563 206.213104,254.198730 203.477768,255.149948 
	C203.477768,222.383423 203.477768,190.029877 203.477768,157.372284 
	C237.410187,157.372284 271.164673,157.372284 305.768677,157.372284 
	C305.768677,160.305862 305.768677,163.237076 305.769928,167.063568 
	C305.771179,172.737640 305.771179,177.516434 305.771179,182.950607 
	C278.071411,182.950607 251.062286,182.950607 224.115143,182.950607 
	C224.115143,198.021515 224.115143,212.420822 224.115143,227.296356 
	C226.747070,226.676056 228.977600,226.150345 231.208130,225.624649 
	C246.785568,222.625854 262.240692,222.777588 277.463898,227.626831 
	C293.162811,232.627609 305.290527,242.107315 313.635681,257.127563 
	C314.287384,258.126892 314.628967,258.617188 314.970551,259.107513 
	C314.970551,259.107513 315.009766,259.007202 314.975159,259.299500 
	C315.234436,259.832794 315.528320,260.073822 315.822174,260.314850 
	C315.822174,260.314850 315.518921,260.141937 315.535492,260.661011 
	C320.151428,272.323761 321.543701,283.969452 320.851257,295.908295 
	C319.155975,325.136536 302.735138,345.412964 274.459076,353.179443 
	C261.809418,356.653900 248.854874,357.811615 235.874588,356.416901 
	C224.173325,355.159668 212.584274,352.858215 200.945724,351.017273 
	C198.461517,350.131744 195.977310,349.246216 193.243393,348.271667 
	C193.243393,339.769409 193.243393,331.179932 193.243393,323.183411 
	C203.091263,326.279663 212.869904,330.033752 222.977280,332.358490 
	C235.375259,335.210114 248.108917,335.634460 260.637451,332.750244 
	C290.387665,325.901459 303.626434,293.650208 287.629517,265.872559 
	C282.320374,257.837067 275.574066,252.545181 267.163940,249.717392 
	C248.068542,243.296829 229.276581,244.857956 210.849518,252.586395 
z"/>
<path fill="#DAA307" opacity="1.000000" stroke="none" 
	d="
M200.949890,351.451202 
	C212.584274,352.858215 224.173325,355.159668 235.874588,356.416901 
	C248.854874,357.811615 261.809418,356.653900 274.459076,353.179443 
	C302.735138,345.412964 319.155975,325.136536 320.851257,295.908295 
	C321.543701,283.969452 320.151428,272.323761 315.449127,260.812683 
	C316.564331,261.462982 318.161926,262.250122 318.942047,263.533997 
	C326.996490,276.788696 329.584290,291.233978 328.433960,306.595703 
	C327.623779,317.414917 325.013794,327.601715 319.389374,336.904358 
	C309.453735,353.337738 293.936768,361.339447 275.811951,364.905640 
	C251.916245,369.607239 228.493820,366.446686 205.293365,360.026031 
	C200.487411,358.696014 200.895233,355.390808 200.949890,351.451202 
z"/>
<path fill="#D9A204" opacity="1.000000" stroke="none" 
	d="
M231.175934,225.115875 
	C228.977600,226.150345 226.747070,226.676056 224.115143,227.296356 
	C224.115143,212.420822 224.115143,198.021515 224.115143,182.950607 
	C251.062286,182.950607 278.071411,182.950607 305.771179,182.950607 
	C305.771179,177.516434 305.771179,172.737640 305.873627,167.508530 
	C313.005432,167.094818 313.012207,167.094803 313.030365,173.855652 
	C313.042450,178.354584 312.806824,182.868057 313.094818,187.348465 
	C313.379486,191.777466 311.603241,193.103424 307.293640,193.073578 
	C284.466644,192.915482 261.638000,192.998062 238.809906,193.001755 
	C231.054062,193.003021 231.036301,193.009079 231.047623,200.614273 
	C231.059525,208.611923 231.110077,216.609497 231.175934,225.115875 
z"/>
<path fill="#DAA307" opacity="1.000000" stroke="none" 
	d="
M210.880295,253.071533 
	C229.276581,244.857956 248.068542,243.296829 267.163940,249.717392 
	C275.574066,252.545181 282.320374,257.837067 287.400452,265.643799 
	C284.302399,264.358246 281.143311,262.521576 277.793427,261.151489 
	C258.586426,253.295883 239.451080,254.978333 220.404190,261.848999 
	C217.772461,262.798340 215.176804,263.847748 211.353622,265.315735 
	C211.187103,260.891235 211.049088,257.223969 210.880295,253.071533 
z"/>
<path fill="#DAA307" opacity="1.000000" stroke="none"
	d="
M314.898254,258.815155
	C314.628967,258.617188 314.287384,258.126892 313.905548,257.328186
	C314.185516,257.520844 314.505737,258.021820 314.898254,258.815155
z"/>
<path fill="#DAA307" opacity="1.000000" stroke="none"
	d="
M315.684662,260.080475
	C315.528320,260.073822 315.234436,259.832794 314.925049,259.279785
	C315.122070,259.260559 315.334595,259.553345 315.684662,260.080475
z"/>
</svg>